<?xml version="1.0" encoding="iso-8859-1"?>
<!-- Generator: Adobe Illustrator 18.1.1, SVG Export Plug-In . SVG Version: 6.00 Build 0)  -->
<svg version="1.1" id="Capa_1" xmlns="http://www.w3.org/2000/svg" xmlns:xlink="http://www.w3.org/1999/xlink" x="0px" y="0px"
	 viewBox="0 0 50.13 50.13" style="enable-background:new 0 0 50.13 50.13;" xml:space="preserve">
<g>
	<path style="fill:#010002;" d="M4.574,13.902h40.982c0.345,0,0.625-0.28,0.625-0.625V8.952c0-0.345-0.28-0.625-0.625-0.625H33.315
		V0.625C33.315,0.28,33.035,0,32.69,0H17.442c-0.345,0-0.625,0.28-0.625,0.625v7.702H4.574c-0.345,0-0.625,0.28-0.625,0.625v4.325
		C3.949,13.622,4.23,13.902,4.574,13.902z M5.199,9.577h12.242c0.345,0,0.625-0.28,0.625-0.625V1.25h13.998v7.702
		c0,0.345,0.28,0.625,0.625,0.625h12.242v3.075H5.199V9.577z"/>
	<path style="fill:#010002;" d="M11.006,18.06H7.17c-0.345,0-0.625,0.28-0.625,0.625v30.82c0,0.345,0.28,0.625,0.625,0.625h35.791
		c0.345,0,0.625-0.28,0.625-0.625v-30.82c0-0.345-0.28-0.625-0.625-0.625h-3.836c-0.345,0-0.625,0.28-0.625,0.625v24.68h-2.537
		v-24.68c0-0.345-0.28-0.625-0.625-0.625h-4.324c-0.345,0-0.625,0.28-0.625,0.625v24.68h-2.535v-24.68
		c0-0.345-0.28-0.625-0.625-0.625h-4.324c-0.345,0-0.625,0.28-0.625,0.625v24.68h-2.537v-24.68c0-0.345-0.28-0.625-0.625-0.625
		h-4.325c-0.345,0-0.625,0.28-0.625,0.625v24.68h-2.537v-24.68C11.631,18.34,11.351,18.06,11.006,18.06z M14.793,44.614
		c0.345,0,0.625-0.28,0.625-0.625V19.31h3.074v24.68c0,0.345,0.28,0.625,0.625,0.625h3.787c0.345,0,0.625-0.28,0.625-0.625V19.31
		h3.074v24.68c0,0.345,0.28,0.625,0.625,0.625h3.785c0.345,0,0.625-0.28,0.625-0.625V19.31h3.074v24.68
		c0,0.345,0.28,0.625,0.625,0.625h3.787c0.345,0,0.625-0.28,0.625-0.625V19.31h2.586v29.57H7.795V19.31h2.586v24.68
		c0,0.345,0.28,0.625,0.625,0.625L14.793,44.614L14.793,44.614z"/>
</g>
<g>
</g>
<g>
</g>
<g>
</g>
<g>
</g>
<g>
</g>
<g>
</g>
<g>
</g>
<g>
</g>
<g>
</g>
<g>
</g>
<g>
</g>
<g>
</g>
<g>
</g>
<g>
</g>
<g>
</g>
</svg>
